<svg width="512" height="512" viewBox="0 0 512 512" fill="none" xmlns="http://www.w3.org/2000/svg">
  <rect width="512" height="512" rx="32" fill="#f1f5f9"/>
  <path d="M160 176C160 149.49 181.49 128 208 128H304C330.51 128 352 149.49 352 176V336C352 362.51 330.51 384 304 384H208C181.49 384 160 362.51 160 336V176Z" stroke="#94a3b8" stroke-width="16" stroke-linejoin="round" stroke-dasharray="10 14"/>
  <path d="M208 256C208 229.49 229.49 208 256 208C282.51 208 304 229.49 304 256C304 282.51 282.51 304 256 304C229.49 304 208 282.51 208 256Z" stroke="#94a3b8" stroke-width="14"/>
  <path d="M223 182C223 175.373 228.373 170 235 170H277C283.627 170 289 175.373 289 182C289 188.627 283.627 194 277 194H235C228.373 194 223 188.627 223 182Z" fill="#cbd5e1"/>
</svg>
